<svg xmlns="http://www.w3.org/2000/svg" width="17" height="17" viewBox="0 0 23 17" fill="none">
    <path d="M13.2594 0.714573C13.0114 0.940198 12.8721 1.24617 12.8721 1.56521C12.8721 1.88424 13.0114 2.19021 13.2594 2.41584L19.8072 8.37147L13.2594 14.3271C13.0184 14.554 12.8851 14.8579 12.8881 15.1734C12.8911 15.4889 13.0302 15.7906 13.2755 16.0137C13.5207 16.2368 13.8525 16.3633 14.1994 16.3661C14.5462 16.3688 14.8803 16.2475 15.1298 16.0284L22.6129 9.2221C22.8609 8.99647 23.0002 8.6905 23.0002 8.37147C23.0002 8.05243 22.8609 7.74646 22.6129 7.52084L15.1298 0.714573C14.8817 0.489016 14.5453 0.362305 14.1946 0.362305C13.8438 0.362305 13.5074 0.489016 13.2594 0.714573Z" fill="url(#paint0_linear_882_8058)"></path>
    <path d="M0.387299 0.895237C0.139312 1.12086 0 1.42684 0 1.74587C0 2.0649 0.139312 2.37088 0.387299 2.5965L6.93517 8.55213L0.387299 14.5078C0.14634 14.7347 0.0130081 15.0386 0.016022 15.3541C0.0190359 15.6695 0.158154 15.9713 0.403412 16.1944C0.64867 16.4174 0.980445 16.544 1.32728 16.5467C1.67411 16.5495 2.00826 16.4282 2.25774 16.209L9.74083 9.40276C9.98882 9.17714 10.1281 8.87117 10.1281 8.55213C10.1281 8.2331 9.98882 7.92712 9.74083 7.7015L2.25774 0.895237C2.00968 0.66968 1.67328 0.542969 1.32252 0.542969C0.97176 0.542969 0.635361 0.66968 0.387299 0.895237Z" fill="url(#paint1_linear_882_8058)"></path>
    <defs>
        <linearGradient id="paint0_linear_882_8058" x1="17.9361" y1="0.362305" x2="17.9361" y2="16.3661" gradientUnits="userSpaceOnUse">
            <stop stop-color="#6852ED"></stop>
            <stop offset="1" stop-color="#BA43FC"></stop>
        </linearGradient>
        <linearGradient id="paint1_linear_882_8058" x1="5.06407" y1="0.542969" x2="5.06407" y2="16.5468" gradientUnits="userSpaceOnUse">
            <stop stop-color="#6852ED"></stop>
            <stop offset="1" stop-color="#BA43FC"></stop>
        </linearGradient>
    </defs>
</svg>