<svg xmlns="http://www.w3.org/2000/svg" width="101" height="101" viewBox="0 0 101 101" fill="none"><path fill-rule="evenodd" clip-rule="evenodd" d="M47.9684 74.1349V78.8686C45.4285 79.7673 43.6078 82.1918 43.6078 85.0377C43.6078 88.6485 46.5383 91.579 50.1491 91.579C53.76 91.579 56.6905 88.6485 56.6905 85.0377C56.6905 82.1918 54.8697 79.7674 52.3298 78.8686V74.1349H62.8282L78.8354 99.2911C79.4829 100.307 80.8299 100.605 81.8461 99.9598C82.8623 99.3123 83.1609 97.9653 82.5155 96.9491L67.996 74.1348H89.3974C93.0105 74.1348 95.9388 71.2065 95.9388 67.5934V12.7097C98.4787 11.8131 100.299 9.38852 100.299 6.54135C100.299 2.92828 97.3711 0 93.7581 0H6.54135C2.92828 0 0 2.92828 0 6.54135C0 9.38852 1.82077 11.8131 4.36065 12.7097V67.5934C4.36065 71.2065 7.28893 74.1348 10.902 74.1348H32.3034L17.7839 96.9491C17.1385 97.9654 17.4371 99.3124 18.4533 99.9598C19.4696 100.605 20.8166 100.307 21.464 99.2911L37.4713 74.1349H47.9684ZM50.1491 82.857C51.353 82.857 52.3298 83.8338 52.3298 85.0377C52.3298 86.2408 51.353 87.2176 50.1491 87.2176C48.9453 87.2176 47.9684 86.2408 47.9684 85.0377C47.9684 83.8338 48.9453 82.857 50.1491 82.857ZM8.71999 13.0832H91.5783V67.5932C91.5783 68.7971 90.6015 69.7739 89.3976 69.7739H10.9014C9.69757 69.7739 8.72074 68.7971 8.72074 67.5932L8.71999 13.0832ZM95.9386 6.54189C95.9386 5.33802 94.9618 4.36119 93.7579 4.36119H6.54116C5.33729 4.36119 4.36046 5.33802 4.36046 6.54189C4.36046 7.74503 5.33729 8.72184 6.54116 8.72184H93.7579C94.9618 8.72184 95.9386 7.74501 95.9386 6.54189Z" fill="url(#paint0_linear_882_8435)"></path><path fill-rule="evenodd" clip-rule="evenodd" d="M32.7064 52.3315C29.0956 52.3315 26.165 55.2621 26.165 58.8729C26.165 62.4837 29.0956 65.4142 32.7064 65.4142C36.3172 65.4142 39.2477 62.4837 39.2477 58.8729C39.2477 55.2621 36.3172 52.3315 32.7064 52.3315ZM32.7064 56.6922C33.9095 56.6922 34.8863 57.669 34.8863 58.8729C34.8863 60.076 33.9095 61.0528 32.7064 61.0528C31.5025 61.0528 30.5257 60.076 30.5257 58.8729C30.5257 57.669 31.5025 56.6922 32.7064 56.6922Z" fill="url(#paint1_linear_882_8435)"></path><path fill-rule="evenodd" clip-rule="evenodd" d="M80.6756 17.4438C77.0648 17.4438 74.1343 20.3744 74.1343 23.9852C74.1343 27.596 77.0648 30.5265 80.6756 30.5265C84.2865 30.5265 87.217 27.596 87.217 23.9852C87.217 20.3744 84.2865 17.4438 80.6756 17.4438ZM80.6756 21.8045C81.8795 21.8045 82.8563 22.7813 82.8563 23.9852C82.8563 25.1891 81.8795 26.1659 80.6756 26.1659C79.4725 26.1659 78.4957 25.1891 78.4957 23.9852C78.4957 22.7813 79.4725 21.8045 80.6756 21.8045Z" fill="url(#paint2_linear_882_8435)"></path><path fill-rule="evenodd" clip-rule="evenodd" d="M62.3299 21.8042H50.2153C39.341 21.8042 30.5259 30.6197 30.5259 41.4937V45.7893C30.5259 46.9924 31.5027 47.9692 32.7066 47.9692C33.9097 47.9692 34.8865 46.9924 34.8865 45.7893V41.4937C34.8865 33.0271 41.7484 26.1652 50.2157 26.1652H62.3303L61.6907 26.804C60.8409 27.6546 60.8409 29.0365 61.6907 29.8871C62.5413 30.7376 63.924 30.7376 64.7745 29.8871L69.1352 25.5264C69.9879 24.6759 69.9879 23.2932 69.1352 22.4426L64.7745 18.082C63.924 17.2315 62.5413 17.2315 61.6907 18.082C60.8409 18.9325 60.8409 20.3145 61.6907 21.165L62.3299 21.8042Z" fill="url(#paint3_linear_882_8435)"></path><path fill-rule="evenodd" clip-rule="evenodd" d="M19.6239 20.9015L16.8044 18.082C15.9539 17.2315 14.572 17.2315 13.7214 18.082C12.8709 18.9325 12.8709 20.3145 13.7214 21.165L16.5409 23.9845L13.7214 26.804C12.8709 27.6546 12.8709 29.0365 13.7214 29.8871C14.5719 30.7376 15.9539 30.7376 16.8044 29.8871L19.6239 27.0676L22.4427 29.8871C23.2932 30.7376 24.6759 30.7376 25.5265 29.8871C26.3763 29.0365 26.3763 27.6546 25.5265 26.804L22.707 23.9845L25.5265 21.165C26.3763 20.3145 26.3763 18.9325 25.5265 18.082C24.6759 17.2315 23.2933 17.2315 22.4427 18.082L19.6239 20.9015Z" fill="url(#paint4_linear_882_8435)"></path><path fill-rule="evenodd" clip-rule="evenodd" d="M19.6239 38.3463L16.8044 35.5268C15.9539 34.677 14.572 34.677 13.7214 35.5268C12.8709 36.3773 12.8709 37.76 13.7214 38.6105L16.5409 41.4293L13.7214 44.2488C12.8709 45.0993 12.8709 46.4813 13.7214 47.3318C14.5719 48.1824 15.9539 48.1824 16.8044 47.3318L19.6239 44.5123L22.4427 47.3318C23.2932 48.1824 24.6759 48.1824 25.5265 47.3318C26.3763 46.4813 26.3763 45.0994 25.5265 44.2488L22.707 41.4293L25.5265 38.6105C26.3763 37.76 26.3763 36.3773 25.5265 35.5268C24.6759 34.677 23.2933 34.677 22.4427 35.5268L19.6239 38.3463Z" fill="url(#paint5_linear_882_8435)"></path><path fill-rule="evenodd" clip-rule="evenodd" d="M45.7895 38.3463L42.9699 35.5268C42.1194 34.677 40.7375 34.677 39.8869 35.5268C39.0364 36.3773 39.0364 37.76 39.8869 38.6105L42.7064 41.4293L39.8869 44.2488C39.0364 45.0993 39.0364 46.4813 39.8869 47.3318C40.7374 48.1824 42.1194 48.1824 42.9699 47.3318L45.7895 44.5123L48.6082 47.3318C49.4587 48.1824 50.8414 48.1824 51.692 47.3318C52.5418 46.4813 52.5418 45.0994 51.692 44.2488L48.8725 41.4293L51.692 38.6105C52.5418 37.76 52.5418 36.3773 51.692 35.5268C50.8415 34.677 49.4588 34.677 48.6082 35.5268L45.7895 38.3463Z" fill="url(#paint6_linear_882_8435)"></path><path fill-rule="evenodd" clip-rule="evenodd" d="M71.9548 34.887C63.5314 34.887 56.6914 41.7277 56.6914 50.1504C56.6914 58.573 63.5314 65.4137 71.9548 65.4137C80.3774 65.4137 87.2174 58.573 87.2174 50.1504C87.2174 41.7277 80.3774 34.887 71.9548 34.887ZM71.9548 39.2484C77.9727 39.2484 82.8568 44.1325 82.8568 50.1504C82.8568 56.1682 77.9727 61.0523 71.9548 61.0523C65.9362 61.0523 61.0521 56.1682 61.0521 50.1504C61.0521 44.1325 65.9362 39.2484 71.9548 39.2484Z" fill="url(#paint7_linear_882_8435)"></path><path fill-rule="evenodd" clip-rule="evenodd" d="M65.7874 51.6924L68.8711 54.7762C69.7224 55.6267 71.1036 55.6267 71.9549 54.7762L78.1217 48.6086C78.973 47.7574 78.973 46.3762 78.1217 45.5249C77.2712 44.6743 75.8893 44.6743 75.0387 45.5249L70.413 50.1505L68.8711 48.6086C68.0199 47.7574 66.6387 47.7574 65.7874 48.6086C64.9361 49.4599 64.9361 50.8411 65.7874 51.6924Z" fill="url(#paint8_linear_882_8435)"></path><defs><linearGradient id="paint0_linear_882_8435" x1="50.1497" y1="0" x2="50.1497" y2="100.3" gradientUnits="userSpaceOnUse"><stop stop-color="#6852ED"></stop><stop offset="1" stop-color="#BA43FC"></stop></linearGradient><linearGradient id="paint1_linear_882_8435" x1="32.7064" y1="52.3315" x2="32.7064" y2="65.4142" gradientUnits="userSpaceOnUse"><stop stop-color="#6852ED"></stop><stop offset="1" stop-color="#BA43FC"></stop></linearGradient><linearGradient id="paint2_linear_882_8435" x1="80.6756" y1="17.4438" x2="80.6756" y2="30.5265" gradientUnits="userSpaceOnUse"><stop stop-color="#6852ED"></stop><stop offset="1" stop-color="#BA43FC"></stop></linearGradient><linearGradient id="paint3_linear_882_8435" x1="50.1503" y1="17.4441" x2="50.1503" y2="47.9692" gradientUnits="userSpaceOnUse"><stop stop-color="#6852ED"></stop><stop offset="1" stop-color="#BA43FC"></stop></linearGradient><linearGradient id="paint4_linear_882_8435" x1="19.6237" y1="17.4441" x2="19.6237" y2="30.525" gradientUnits="userSpaceOnUse"><stop stop-color="#6852ED"></stop><stop offset="1" stop-color="#BA43FC"></stop></linearGradient><linearGradient id="paint5_linear_882_8435" x1="19.6237" y1="34.8894" x2="19.6237" y2="47.9697" gradientUnits="userSpaceOnUse"><stop stop-color="#6852ED"></stop><stop offset="1" stop-color="#BA43FC"></stop></linearGradient><linearGradient id="paint6_linear_882_8435" x1="45.7892" y1="34.8894" x2="45.7892" y2="47.9697" gradientUnits="userSpaceOnUse"><stop stop-color="#6852ED"></stop><stop offset="1" stop-color="#BA43FC"></stop></linearGradient><linearGradient id="paint7_linear_882_8435" x1="71.9544" y1="34.887" x2="71.9544" y2="65.4137" gradientUnits="userSpaceOnUse"><stop stop-color="#6852ED"></stop><stop offset="1" stop-color="#BA43FC"></stop></linearGradient><linearGradient id="paint8_linear_882_8435" x1="71.9545" y1="44.887" x2="71.9545" y2="55.4141" gradientUnits="userSpaceOnUse"><stop stop-color="#6852ED"></stop><stop offset="1" stop-color="#BA43FC"></stop></linearGradient></defs></svg>