<svg xmlns="http://www.w3.org/2000/svg" width="89" height="101" viewBox="0 0 89 101" fill="none"><path d="M83.9 80.3032C82.1414 71.9508 75.5831 65.5384 67.1967 63.9654L60.6968 62.747L60.3003 62.6286L60.2873 62.6705L55.3792 61.7496V59.2855C67.0384 54.6604 74.7922 43.3311 74.7922 30.7373C74.7922 13.7884 61.0038 0 44.0549 0C27.1061 0 13.3177 13.7884 13.3177 30.7373C13.3177 43.3311 21.0714 54.6596 32.7307 59.2836V61.7478L27.8225 62.6686L27.8095 62.6267L27.413 62.7452L20.9132 63.9635C12.5255 65.5358 5.96848 71.9504 4.20985 80.3013L0 100.3H88.111L83.9 80.3032ZM80.7346 80.9698L84.1231 97.065H72.9607L71.5422 87.1289L68.3393 87.5868L69.6913 97.0651H51.8527L49.0203 82.8968L52.1879 78.6725L57.9959 81.5765L62.553 66.3856L66.6003 67.1446C73.6976 68.4763 79.2462 73.9024 80.7347 80.9698L80.7346 80.9698ZM37.5841 27.5008H34.3486C32.564 27.5008 31.1131 26.0499 31.1131 24.2653C31.1131 22.4807 32.564 21.0298 34.3486 21.0298C36.1331 21.0298 37.5841 22.4807 37.5841 24.2653V27.5008ZM47.2906 37.2073H40.8196V30.7363H47.2906V37.2073ZM39.0726 40.4428H49.0376L50.3801 56.546H37.7291L39.0726 40.4428ZM35.9663 59.7819H52.1438V62.506L44.9139 71.1805H43.1957L35.9663 62.506V59.7819ZM44.0551 74.6068L49.2448 77.2016L46.4817 80.8871H41.6284L38.8653 77.2016L44.0551 74.6068ZM42.1463 84.1226H45.9638L48.5522 97.0647H39.5579L42.1463 84.1226ZM56.0005 76.9626L47.7485 72.8359L54.3972 64.857L59.3538 65.7857L56.0005 76.9626ZM16.5533 30.7374C16.5533 15.5725 28.8902 3.23566 44.0551 3.23566C59.22 3.23566 71.5568 15.5725 71.5568 30.7374C71.5568 42.204 64.3629 52.4874 53.6192 56.4791L52.0145 37.2084H50.526V30.7374H53.7615C57.33 30.7374 60.2325 27.8349 60.2325 24.2664C60.2325 20.6979 57.33 17.7954 53.7615 17.7954C50.193 17.7954 47.2905 20.6979 47.2905 24.2664V27.5019H40.8195V24.2664C40.8195 20.6979 37.917 17.7954 34.3485 17.7954C30.78 17.7954 27.8775 20.6979 27.8775 24.2664C27.8775 27.8349 30.78 30.7374 34.3485 30.7374H37.584V37.2084H36.0955L34.4907 56.4791C23.7472 52.4881 16.5531 42.2039 16.5531 30.7374H16.5533ZM50.5261 27.5019V24.2664C50.5261 22.4818 51.977 21.0309 53.7616 21.0309C55.5461 21.0309 56.9971 22.4818 56.9971 24.2664C56.9971 26.051 55.5461 27.5019 53.7616 27.5019H50.5261ZM33.7129 64.8581L40.3616 72.837L32.1096 76.9637L28.7578 65.7883L33.7129 64.8581ZM7.37595 80.9705C8.86443 73.9023 14.4131 68.4763 21.5103 67.1466L25.5576 66.3876L30.1147 81.5785L35.9227 78.6745L39.0903 82.8988L36.2579 97.0657H18.4194L19.7735 87.5888L16.5705 87.1309L15.15 97.0656H3.98747L7.37595 80.9705Z" fill="url(#paint0_linear_882_8460)"></path><path d="M44.0559 9.70596V6.47046C33.3969 6.47046 23.8331 13.598 20.7954 23.805L23.8952 24.7272C26.5276 15.8823 34.8186 9.70602 44.0552 9.70602L44.0559 9.70596Z" fill="url(#paint1_linear_882_8460)"></path><path d="M19.7891 30.7369H23.0246C23.0246 29.7258 23.0961 28.7147 23.2383 27.7311L20.0354 27.2717C19.8714 28.407 19.7891 29.5719 19.7891 30.7369L19.7891 30.7369Z" fill="url(#paint2_linear_882_8460)"></path><defs><linearGradient id="paint0_linear_882_8460" x1="44.0555" y1="0" x2="44.0555" y2="100.3" gradientUnits="userSpaceOnUse"><stop stop-color="#6852ED"></stop><stop offset="1" stop-color="#BA43FC"></stop></linearGradient><linearGradient id="paint1_linear_882_8460" x1="32.4257" y1="6.47046" x2="32.4257" y2="24.7272" gradientUnits="userSpaceOnUse"><stop stop-color="#6852ED"></stop><stop offset="1" stop-color="#BA43FC"></stop></linearGradient><linearGradient id="paint2_linear_882_8460" x1="21.5137" y1="27.2717" x2="21.5137" y2="30.7369" gradientUnits="userSpaceOnUse"><stop stop-color="#6852ED"></stop><stop offset="1" stop-color="#BA43FC"></stop></linearGradient></defs></svg>