<svg xmlns="http://www.w3.org/2000/svg" width="101" height="101" viewBox="0 0 101 101" fill="none"><path d="M88.3478 45.8758C97.8585 29.3902 100.607 11.5303 100.395 5.18961C100.29 2.3361 97.9648 0.117231 95.2167 0.0111747C88.8757 -0.20039 71.0164 2.54765 54.5305 12.0585L46.6054 9.09953C37.3055 5.71744 26.7378 8.46557 20.2914 16.0745L6.87008 31.8208C5.49604 33.4057 4.96825 35.6252 5.60217 37.7386C5.91915 38.9011 6.44769 39.852 7.29319 40.6976C7.92715 41.3315 8.77266 41.8601 9.72361 42.1771L20.9253 46.2985C14.6905 55.5984 10.9914 63.7351 13.1049 65.849L34.6634 87.4075C36.883 89.6271 45.0197 85.8226 54.3196 79.5871L58.3363 90.7888C58.6533 91.7397 59.1818 92.4798 59.8158 93.1137C60.6613 93.9592 61.6122 94.4878 62.7747 94.8047C64.7828 95.3333 67.0015 94.9102 68.5873 93.4307L84.3335 80.1154C91.8371 73.669 94.6898 63.1012 91.3085 53.8014L88.3478 45.8758ZM95.005 4.55554C95.5336 4.55554 95.7451 4.87252 95.7451 5.29565C95.8505 8.67774 94.8996 16.1805 92.2577 24.9518L75.3495 8.04291C84.1203 5.40095 91.6237 4.44928 95.0057 4.55552L95.005 4.55554ZM11.202 37.7386C10.568 37.527 10.1449 36.9985 10.0395 36.4707C9.93405 35.9421 10.0395 35.2028 10.4619 34.7796L23.7772 19.0334C28.9556 12.904 37.5155 10.6851 45.0185 13.4324L49.5623 15.1234C45.9694 17.5538 42.4819 20.3019 39.3115 23.4717C33.9221 28.8611 28.2151 35.7305 23.4597 42.2824L11.202 37.7386ZM37.1989 83.3917L17.0143 63.2071C17.5428 61.199 20.1848 55.7036 24.8347 48.5178L51.8884 75.5715C44.8073 80.3269 39.2064 82.8628 37.1991 83.3913L37.1989 83.3917ZM27.4759 44.6077C31.3858 39.0067 36.4589 32.7719 42.5875 26.6425C50.725 18.5051 60.9758 13.1157 70.4867 9.7336L90.6712 29.9182C87.2892 39.3236 81.8999 49.6801 73.7623 57.8173C67.633 63.9467 61.3979 69.0191 55.7972 72.929L27.4759 44.6077ZM81.3719 76.6283L65.6256 89.9442C65.2032 90.3665 64.5685 90.4727 63.9346 90.3666C63.3007 90.155 62.8775 89.7326 62.6667 89.204L58.1229 76.8397C64.6748 72.0843 71.5443 66.4834 76.9337 60.9879C80.1042 57.8173 82.8515 54.3299 85.2819 50.7371L86.9729 55.2809C89.7204 62.8897 87.5015 71.4504 81.372 76.6279L81.3719 76.6283Z" fill="url(#paint0_linear_882_8454)"></path><path d="M70.1708 30.2355C65.3093 25.374 57.3834 25.374 52.4172 30.2355C47.4503 35.0971 47.5556 43.023 52.4172 47.9892C57.2788 52.956 65.2047 52.8507 70.1708 47.9892C75.1377 43.1283 75.1377 35.0971 70.1708 30.2355ZM67.0003 44.6078C63.936 47.6721 58.8629 47.6721 55.7986 44.6078C52.7343 41.5435 52.7343 36.4704 55.7986 33.4061C58.8629 30.3418 63.936 30.3418 67.0003 33.4061C70.0653 36.5766 70.0653 41.5435 67.0003 44.6078Z" fill="url(#paint1_linear_882_8454)"></path><path d="M24.8345 88.8871L17.3309 96.3906C16.4854 97.2361 16.4854 98.7155 17.3309 99.6665C18.1764 100.512 19.6558 100.512 20.6068 99.6665L28.1103 92.1629C28.9558 91.3174 28.9558 89.838 28.1103 88.8871C27.1594 88.0415 25.7861 88.0415 24.8345 88.8871Z" fill="url(#paint2_linear_882_8454)"></path><path d="M19.7625 80.6439C18.917 79.7984 17.4376 79.7984 16.4866 80.6439L4.54479 92.5858C3.69926 93.4313 3.69926 94.9107 4.54479 95.8616C5.39031 96.7071 6.86971 96.7071 7.82063 95.8616L19.868 83.8143C20.7135 82.9687 20.7135 81.4893 19.7626 80.6437L19.7625 80.6439Z" fill="url(#paint3_linear_882_8454)"></path><path d="M11.4135 75.5716C12.2591 74.7261 12.2591 73.2467 11.4135 72.2958C10.568 71.4502 9.08861 71.4502 8.13769 72.2958L0.634142 79.7993C-0.211381 80.6448 -0.211381 82.1242 0.634142 83.0752C1.47966 83.9207 2.95907 83.9207 3.90999 83.0752L11.4135 75.5716Z" fill="url(#paint4_linear_882_8454)"></path><defs><linearGradient id="paint0_linear_882_8454" x1="52.8711" y1="0" x2="52.8711" y2="95.0227" gradientUnits="userSpaceOnUse"><stop stop-color="#6852ED"></stop><stop offset="1" stop-color="#BA43FC"></stop></linearGradient><linearGradient id="paint1_linear_882_8454" x1="61.3137" y1="26.5894" x2="61.3137" y2="51.6749" gradientUnits="userSpaceOnUse"><stop stop-color="#6852ED"></stop><stop offset="1" stop-color="#BA43FC"></stop></linearGradient><linearGradient id="paint2_linear_882_8454" x1="22.7206" y1="88.2529" x2="22.7206" y2="100.301" gradientUnits="userSpaceOnUse"><stop stop-color="#6852ED"></stop><stop offset="1" stop-color="#BA43FC"></stop></linearGradient><linearGradient id="paint3_linear_882_8454" x1="12.2001" y1="80.0098" x2="12.2001" y2="96.4958" gradientUnits="userSpaceOnUse"><stop stop-color="#6852ED"></stop><stop offset="1" stop-color="#BA43FC"></stop></linearGradient><linearGradient id="paint4_linear_882_8454" x1="6.02384" y1="71.6616" x2="6.02384" y2="83.7093" gradientUnits="userSpaceOnUse"><stop stop-color="#6852ED"></stop><stop offset="1" stop-color="#BA43FC"></stop></linearGradient></defs></svg>